<?xml version="1.0" standalone="no"?>
<!DOCTYPE svg PUBLIC "-//W3C//DTD SVG 1.0//EN" "http://www.w3.org/TR/2001/REC-SVG-20010904/DTD/svg10.dtd">
<svg xmlns="http://www.w3.org/2000/svg" width="800" height="160" viewBox="0 0 800 160" xmlns:xlink="htttp://www.w3.org/1999/xlink">

  <defs>
    <style type="text/css">
      <![CDATA[
        line {fill:none; stroke:#93a1a1; stroke-width:1.0px;}
      ]]>
    </style>
  </defs>

<text x="10" y="64.0" fill="black" font-family="Helvetica" font-size="12" font-weight="bold">LG05</text>
<rect style="stroke:none; fill:#f59031" x="50.02529428490434" y="10" width="9.63179847763025" height="100" />
<rect style="stroke:none; fill:#5b5b5b" x="59.65735005964238" y="10" width="0.235921655758776" height="100" />
<rect style="stroke:none; fill:#27abd0" x="59.89408319089496" y="10" width="4.079465436105359" height="100" />
<rect style="stroke:none; fill:#5b5b5b" x="63.97493407296534" y="10" width="0.5496855826668193" height="100" />
<rect style="stroke:none; fill:#f59031" x="64.58534177307075" y="10" width="8.348242167288964" height="100" />
<rect style="stroke:none; fill:#5b5b5b" x="72.93447458419436" y="10" width="0.5599972590636584" height="100" />
<rect style="stroke:none; fill:#bad531" x="73.50856380793087" y="10" width="0.3350602105990201" height="100" />
<rect style="stroke:none; fill:#5b5b5b" x="73.85009603039508" y="10" width="1.247792012358392" height="100" />
<rect style="stroke:none; fill:#f59031" x="75.09794741900912" y="10" width="2.38354103031658" height="100" />
<rect style="stroke:none; fill:#5b5b5b" x="77.4828343111203" y="10" width="0.9805592777900202" height="100" />
<rect style="stroke:none; fill:#27abd0" x="78.47103333380318" y="10" width="1.5283646123614465" height="100" />
<rect style="stroke:none; fill:#5b5b5b" x="80.00048651085143" y="10" width="0.71762142571323" height="100" />
<rect style="stroke:none; fill:#bad531" x="80.7268164540591" y="10" width="0.32146304805654696" height="100" />
<rect style="stroke:none; fill:#5b5b5b" x="81.04980349267719" y="10" width="0.5428771053529754" height="100" />
<rect style="stroke:none; fill:#ef2746" x="81.59477855906292" y="10" width="3.1394205567497524" height="100" />
<rect style="stroke:none; fill:#5b5b5b" x="84.7381773249408" y="10" width="0.3825612151142099" height="100" />
<rect style="stroke:none; fill:#ef2746" x="85.12105521341846" y="10" width="1.1308999570805958" height="100" />
<rect style="stroke:none; fill:#5b5b5b" x="86.25668547886536" y="10" width="2.7700408703885078" height="100" />
<rect style="stroke:none; fill:#f59031" x="89.02918056782048" y="10" width="0.2398800728017085" height="100" />
<rect style="stroke:none; fill:#5b5b5b" x="89.26933772981519" y="10" width="0.3302111497214278" height="100" />
<rect style="stroke:none; fill:#ef2746" x="89.60010305792264" y="10" width="1.6718770222529638" height="100" />
<rect style="stroke:none; fill:#5b5b5b" x="91.27215820894253" y="10" width="2.2896077938877926" height="100" />
<rect style="stroke:none; fill:#f59031" x="93.56325040922142" y="10" width="1.7336877043783543" height="100" />
<rect style="stroke:none; fill:#5b5b5b" x="95.29721520279278" y="10" width="0.23435808102681768" height="100" />
<rect style="stroke:none; fill:#bad531" x="95.53315665063678" y="10" width="1.3181132911260875" height="100" />
<rect style="stroke:none; fill:#5b5b5b" x="96.85615858681089" y="10" width="0.3989292695867357" height="100" />
<rect style="stroke:none; fill:#606cb3" x="97.25730456994165" y="10" width="0.13551640746479357" height="100" />
<rect style="stroke:none; fill:#5b5b5b" x="97.39295952200297" y="10" width="0.3444020748203407" height="100" />
<rect style="stroke:none; fill:#606cb3" x="97.7438534007737" y="10" width="0.2459958271330392" height="100" />
<rect style="stroke:none; fill:#5b5b5b" x="97.99028465378147" y="10" width="0.3724870437399467" height="100" />
<rect style="stroke:none; fill:#bfbfbf" x="98.36340504424828" y="10" width="0.023532789320233612" height="100" />
<rect style="stroke:none; fill:#5b5b5b" x="98.38842223995962" y="10" width="3.1463477865748843" height="100" />
<rect style="stroke:none; fill:#bfbfbf" x="101.5413805829962" y="10" width="0.17761417271638053" height="100" />
<rect style="stroke:none; fill:#ef2746" x="101.7230521331816" y="10" width="0.7346822031682689" height="100" />
<rect style="stroke:none; fill:#5b5b5b" x="102.45852601975844" y="10" width="0.8433803351671949" height="100" />
<rect style="stroke:none; fill:#bad531" x="103.30748772295618" y="10" width="0.1962781090738072" height="100" />
<rect style="stroke:none; fill:#5b5b5b" x="103.50517107008022" y="10" width="0.1498260850749945" height="100" />
<rect style="stroke:none; fill:#606cb3" x="103.65650135363153" y="10" width="0.1682525164098452" height="100" />
<rect style="stroke:none; fill:#5b5b5b" x="103.827485177801" y="10" width="1.2814979334789622" height="100" />
<rect style="stroke:none; fill:#ef2746" x="105.1104081414154" y="10" width="0.3897259499619177" height="100" />
<rect style="stroke:none; fill:#5b5b5b" x="105.5004903489112" y="10" width="0.7561961997966069" height="100" />
<rect style="stroke:none; fill:#ef2746" x="106.25890326225185" y="10" width="0.7731580168255726" height="100" />
<rect style="stroke:none; fill:#5b5b5b" x="107.03225919992957" y="10" width="1.2228737770731322" height="100" />
<rect style="stroke:none; fill:#606cb3" x="108.25541006619571" y="10" width="0.05525950191933747" height="100" />
<rect style="stroke:none; fill:#5b5b5b" x="108.31213418242092" y="10" width="0.11572432225013116" height="100" />
<rect style="stroke:none; fill:#ef2746" x="108.42799704926756" y="10" width="1.143725228299697" height="100" />
<rect style="stroke:none; fill:#5b5b5b" x="109.57368169400351" y="10" width="0.9751956226968466" height="100" />
<rect style="stroke:none; fill:#ef2746" x="110.5517867532269" y="10" width="1.6938660289264535" height="100" />
<rect style="stroke:none; fill:#5b5b5b" x="112.25210500193334" y="10" width="1.821069760601089" height="100" />
<rect style="stroke:none; fill:#ef2746" x="114.08275413177833" y="10" width="2.47502004817875" height="100" />
<rect style="stroke:none; fill:#5b5b5b" x="116.56224719121559" y="10" width="0.3605128321850759" height="100" />
<rect style="stroke:none; fill:#ef2746" x="116.92620384622802" y="10" width="1.7866909085832203" height="100" />
<rect style="stroke:none; fill:#5b5b5b" x="118.72001990548851" y="10" width="1.2938481946529115" height="100" />
<rect style="stroke:none; fill:#ef2746" x="120.01473895189088" y="10" width="3.8266809237436905" height="100" />
<rect style="stroke:none; fill:#5b5b5b" x="123.84185530150928" y="10" width="0.4697057663143685" height="100" />
<rect style="stroke:none; fill:#ef2746" x="124.31193711744274" y="10" width="2.7417381885315404" height="100" />
<rect style="stroke:none; fill:#5b5b5b" x="127.054110731849" y="10" width="1.0003117788342533" height="100" />
<rect style="stroke:none; fill:#ef2746" x="128.05497668906926" y="10" width="1.1980347101287308" height="100" />
<rect style="stroke:none; fill:#bfbfbf" x="129.25352599341358" y="10" width="0.0470259944700379" height="100" />
<rect style="stroke:none; fill:#5b5b5b" x="129.3020363942747" y="10" width="0.6375228568494911" height="100" />
<rect style="stroke:none; fill:#ef2746" x="129.94033114244758" y="10" width="13.75015536118242" height="100" />
<rect style="stroke:none; fill:#bfbfbf" x="143.69254488049233" y="10" width="0.09280508757155208" height="100" />
<rect style="stroke:none; fill:#606cb3" x="143.78643853275068" y="10" width="1.6038318332849544" height="100" />
<rect style="stroke:none; fill:#ef2746" x="145.39040891063212" y="10" width="0.5917239716627622" height="100" />
<rect style="stroke:none; fill:#5b5b5b" x="145.9995103331134" y="10" width="1.503763050439621" height="100" />
<rect style="stroke:none; fill:#ef2746" x="147.50782556315238" y="10" width="1.7311741095560922" height="100" />
<rect style="stroke:none; fill:#5b5b5b" x="149.23913821730497" y="10" width="0.6154546818351425" height="100" />
<rect style="stroke:none; fill:#f59031" x="149.85643356306508" y="10" width="1.272472742621076" height="100" />
<rect style="stroke:none; fill:#5b5b5b" x="151.12924277113478" y="10" width="2.637414107365055" height="100" />
<rect style="stroke:none; fill:#f59031" x="153.7796800705711" y="10" width="0.442471857058993" height="100" />
<rect style="stroke:none; fill:#5b5b5b" x="154.2278124640015" y="10" width="1.3265645115127485" height="100" />
<rect style="stroke:none; fill:#f59031" x="155.55495094598547" y="10" width="7.5821301327998105" height="100" />
<rect style="stroke:none; fill:#ef2746" x="163.13842694057985" y="10" width="6.481512066097649" height="100" />
<rect style="stroke:none; fill:#5b5b5b" x="169.62039422463744" y="10" width="1.2348479886280028" height="100" />
<rect style="stroke:none; fill:#ef2746" x="170.85538075786195" y="10" width="1.2542046479679427" height="100" />
<rect style="stroke:none; fill:#5b5b5b" x="172.11057501009063" y="10" width="2.758383332197072" height="100" />
<rect style="stroke:none; fill:#bfbfbf" x="174.86992815446322" y="10" width="0.23402161557816842" height="100" />
<rect style="stroke:none; fill:#5b5b5b" x="175.10891758343027" y="10" width="1.0551556469640828" height="100" />
<rect style="stroke:none; fill:#606cb3" x="176.1642909433317" y="10" width="0.8001940052288015" height="100" />
<rect style="stroke:none; fill:#5b5b5b" x="176.9676912663653" y="10" width="1.643356627458635" height="100" />
<rect style="stroke:none; fill:#f59031" x="178.61108747799435" y="10" width="3.062943939480297" height="100" />
<rect style="stroke:none; fill:#5b5b5b" x="181.67608979433697" y="10" width="0.43198205189522193" height="100" />
<rect style="stroke:none; fill:#ef2746" x="182.10840831168085" y="10" width="1.305664069526065" height="100" />
<rect style="stroke:none; fill:#5b5b5b" x="183.41462655959293" y="10" width="1.9801189573861162" height="100" />
<rect style="stroke:none; fill:#ef2746" x="185.39529969536505" y="10" width="4.435525049117135" height="100" />
<rect style="stroke:none; fill:#5b5b5b" x="189.85586173227873" y="10" width="1.099410749504068" height="100" />
<rect style="stroke:none; fill:#ef2746" x="190.95590582850966" y="10" width="6.513337739122825" height="100" />
<rect style="stroke:none; fill:#5b5b5b" x="197.47298427173806" y="10" width="1.4287708395612653" height="100" />
<rect style="stroke:none; fill:#ef2746" x="198.9021113688332" y="10" width="0.9901386470339167" height="100" />
<rect style="stroke:none; fill:#5b5b5b" x="199.89363546183213" y="10" width="1.5098392206005224" height="100" />
<rect style="stroke:none; fill:#ef2746" x="201.40563201972105" y="10" width="1.8007630811708453" height="100" />
<rect style="stroke:none; fill:#bfbfbf" x="203.20643468506233" y="10" width="0.024205720217532135" height="100" />
<rect style="stroke:none; fill:#5b5b5b" x="203.23066019736507" y="10" width="0.46139309052421024" height="100" />
<rect style="stroke:none; fill:#ef2746" x="203.6938345755586" y="10" width="3.2471884607435895" height="100" />
<rect style="stroke:none; fill:#5b5b5b" x="206.94137929383606" y="10" width="1.5890471456296014" height="100" />
<rect style="stroke:none; fill:#bad531" x="208.53373171769653" y="10" width="0.1596231672562524" height="100" />
<rect style="stroke:none; fill:#5b5b5b" x="208.69369135040142" y="10" width="0.543550036250274" height="100" />
<rect style="stroke:none; fill:#ef2746" x="209.23761743627077" y="10" width="1.5468900041223705" height="100" />
<rect style="stroke:none; fill:#5b5b5b" x="210.78525953963128" y="10" width="0.5770184523482681" height="100" />
<rect style="stroke:none; fill:#f59031" x="211.36415824007494" y="10" width="0.3503594924699541" height="100" />
<rect style="stroke:none; fill:#5b5b5b" x="211.714616692971" y="10" width="1.1095838813044043" height="100" />
<rect style="stroke:none; fill:#ef2746" x="212.82540789147347" y="10" width="0.935947917716171" height="100" />
<rect style="stroke:none; fill:#5b5b5b" x="213.76200894800175" y="10" width="1.2542640242235867" height="100" />
<rect style="stroke:none; fill:#ef2746" x="215.02183454817063" y="10" width="0.8461710191824623" height="100" />
<rect style="stroke:none; fill:#5b5b5b" x="215.8694899737442" y="10" width="3.31252213403719" height="100" />
<rect style="stroke:none; fill:#ef2746" x="219.18264545450828" y="10" width="4.140227137714373" height="100" />
<rect style="stroke:none; fill:#5b5b5b" x="223.32318926558608" y="10" width="4.269370493740045" height="100" />
<rect style="stroke:none; fill:#ef2746" x="227.59410354197286" y="10" width="0.59918558778869" height="100" />
<rect style="stroke:none; fill:#5b5b5b" x="228.19461519947095" y="10" width="0.6222235749785571" height="100" />
<rect style="stroke:none; fill:#ef2746" x="228.81852110169274" y="10" width="2.0359326376914644" height="100" />
<rect style="stroke:none; fill:#5b5b5b" x="230.85457249189548" y="10" width="1.0502472098308464" height="100" />
<rect style="stroke:none; fill:#ef2746" x="231.91459699182238" y="10" width="0.8585212803564116" height="100" />
<rect style="stroke:none; fill:#bfbfbf" x="232.77315785634923" y="10" width="0.11239925193406787" height="100" />
<rect style="stroke:none; fill:#5b5b5b" x="232.8861112866693" y="10" width="2.824607649325332" height="100" />
<rect style="stroke:none; fill:#ef2746" x="235.71093664893198" y="10" width="4.3308249183315715" height="100" />
<rect style="stroke:none; fill:#5b5b5b" x="240.04300846863208" y="10" width="0.316712947605028" height="100" />
<rect style="stroke:none; fill:#f59031" x="240.36045372339007" y="10" width="0.21612957054411358" height="100" />
<rect style="stroke:none; fill:#5b5b5b" x="240.57672183853066" y="10" width="0.8542659820352593" height="100" />
<rect style="stroke:none; fill:#bfbfbf" x="241.43387746500727" y="10" width="0.06382947481728629" height="100" />
<rect style="stroke:none; fill:#5b5b5b" x="241.50255600070216" y="10" width="0.628853923525469" height="100" />
<rect style="stroke:none; fill:#bad531" x="242.1316474292502" y="10" width="0.21440765913043797" height="100" />
<rect style="stroke:none; fill:#5b5b5b" x="242.34999371333836" y="10" width="1.3317698299242047" height="100" />
<rect style="stroke:none; fill:#ef2746" x="243.68255522667116" y="10" width="1.4916700863734624" height="100" />
<rect style="stroke:none; fill:#5b5b5b" x="245.1743638576411" y="10" width="1.8479869964930298" height="100" />
<rect style="stroke:none; fill:#ef2746" x="247.03367192687693" y="10" width="0.6042919457740729" height="100" />
<rect style="stroke:none; fill:#5b5b5b" x="247.64299106229552" y="10" width="5.628413817090054" height="100" />
<rect style="stroke:none; fill:#f59031" x="253.2745518209347" y="10" width="0.8091202356606143" height="100" />
<rect style="stroke:none; fill:#5b5b5b" x="254.0844241558335" y="10" width="6.506232380530761" height="100" />
<rect style="stroke:none; fill:#ef2746" x="260.5910325859833" y="10" width="0.931435322287228" height="100" />
<rect style="stroke:none; fill:#5b5b5b" x="261.53410565437673" y="10" width="4.3922991350083125" height="100" />
<rect style="stroke:none; fill:#ef2746" x="265.9265631260668" y="10" width="1.300142077751174" height="100" />
<rect style="stroke:none; fill:#5b5b5b" x="267.2291396302994" y="10" width="1.013038089627281" height="100" />
<rect style="stroke:none; fill:#f59031" x="268.2434642054656" y="10" width="1.267029919187044" height="100" />
<rect style="stroke:none; fill:#5b5b5b" x="269.5148879675703" y="10" width="28.850883033242976" height="100" />
<rect style="stroke:none; fill:#bad531" x="298.37131278467336" y="10" width="0.19746563418668694" height="100" />
<rect style="stroke:none; fill:#5b5b5b" x="298.5715295187049" y="10" width="18.723391781411504" height="100" />
<rect style="stroke:none; fill:#bad531" x="317.29790990498384" y="10" width="0.04787705413426838" height="100" />
<rect style="stroke:none; fill:#5b5b5b" x="317.34691510797535" y="10" width="5.2280793094530775" height="100" />
<rect style="stroke:none; fill:#bad531" x="322.5762215267117" y="10" width="0.11093463762818284" height="100" />
<rect style="stroke:none; fill:#5b5b5b" x="322.68725512476595" y="10" width="4.488251164128997" height="100" />
<rect style="stroke:none; fill:#606cb3" x="327.17560524932105" y="10" width="0.13832688356527564" height="100" />
<rect style="stroke:none; fill:#5b5b5b" x="327.31992913470634" y="10" width="0.1074314385451876" height="100" />
<rect style="stroke:none; fill:#bfbfbf" x="327.42787516746716" y="10" width="0.026917235891940887" height="100" />
<rect style="stroke:none; fill:#5b5b5b" x="327.45558408676766" y="10" width="59.62987142392794" height="100" />
<rect style="stroke:none; fill:#ef2746" x="387.08901808603423" y="10" width="1.0807468131466413" height="100" />
<rect style="stroke:none; fill:#5b5b5b" x="388.1772265153068" y="10" width="11.338093936071513" height="100" />
<rect style="stroke:none; fill:#f59031" x="399.5156371247418" y="10" width="1.204704642846072" height="100" />
<rect style="stroke:none; fill:#bfbfbf" x="400.7356806336292" y="10" width="0.05856478015018609" height="100" />
<rect style="stroke:none; fill:#5b5b5b" x="400.7990350984013" y="10" width="39.05491027859954" height="100" />
<rect style="stroke:none; fill:#bfbfbf" x="439.85509331794333" y="10" width="0.10966794417444445" height="100" />
<rect style="stroke:none; fill:#27abd0" x="439.97192599696547" y="10" width="3.4705025582206255" height="100" />
<rect style="stroke:none; fill:#5b5b5b" x="443.44371504072507" y="10" width="0.40961699560265336" height="100" />
<rect style="stroke:none; fill:#bad531" x="443.8534705809242" y="10" width="1.4523827972223575" height="100" />
<rect style="stroke:none; fill:#bfbfbf" x="445.30609088316913" y="10" width="0.8416386316683047" height="100" />
<rect style="stroke:none; fill:#ef2746" x="446.14978789169976" y="10" width="1.3454857449779658" height="100" />
<rect style="stroke:none; fill:#bfbfbf" x="447.4954121812742" y="10" width="0.8530586648371649" height="100" />
<rect style="stroke:none; fill:#ef2746" x="448.35385429328977" y="10" width="4.7628861385676515" height="100" />
<rect style="stroke:none; fill:#5b5b5b" x="453.39022746535363" y="10" width="2.1237105356184918" height="100" />
<rect style="stroke:none; fill:#f59031" x="455.5164911799648" y="10" width="0.8033013626075035" height="100" />
<rect style="stroke:none; fill:#5b5b5b" x="456.3200300475949" y="10" width="0.2059168545733478" height="100" />
<rect style="stroke:none; fill:#ef2746" x="456.52929176456956" y="10" width="0.9933053806682627" height="100" />
<rect style="stroke:none; fill:#5b5b5b" x="457.53277027703814" y="10" width="3.445386402083219" height="100" />
<rect style="stroke:none; fill:#bfbfbf" x="460.979324412149" y="10" width="0.045759301016299506" height="100" />
<rect style="stroke:none; fill:#5b5b5b" x="461.0296358927647" y="10" width="2.154724733149868" height="100" />
<rect style="stroke:none; fill:#bfbfbf" x="463.1859044085613" y="10" width="0.03885186327638233" height="100" />
<rect style="stroke:none; fill:#5b5b5b" x="463.2274282033417" y="10" width="10.113577415925564" height="100" />
<rect style="stroke:none; fill:#ef2746" x="473.3429056594478" y="10" width="1.5354699709535102" height="100" />
<rect style="stroke:none; fill:#5b5b5b" x="474.8818986215696" y="10" width="2.3800774154040143" height="100" />
<rect style="stroke:none; fill:#606cb3" x="477.2623125024222" y="10" width="0.17905899493705088" height="100" />
<rect style="stroke:none; fill:#5b5b5b" x="477.4500800148537" y="10" width="0.2147639166643019" height="100" />
<rect style="stroke:none; fill:#bfbfbf" x="477.66975236865125" y="10" width="0.026996404232799535" height="100" />
<rect style="stroke:none; fill:#f59031" x="477.70468539905517" y="10" width="1.5074443782895484" height="100" />
<rect style="stroke:none; fill:#5b5b5b" x="479.21426732254787" y="10" width="1.378419774775164" height="100" />
<rect style="stroke:none; fill:#ef2746" x="480.5929246023456" y="10" width="0.5045992125478184" height="100" />
<rect style="stroke:none; fill:#5b5b5b" x="481.0978602803421" y="10" width="18.501621466581213" height="100" />
<rect style="stroke:none; fill:#ef2746" x="499.60239118344987" y="10" width="0.6761570071885121" height="100" />
<rect style="stroke:none; fill:#5b5b5b" x="500.28040864664854" y="10" width="17.554312891951824" height="100" />
<rect style="stroke:none; fill:#bfbfbf" x="517.8382643218538" y="10" width="0.11869313503233052" height="100" />
<rect style="stroke:none; fill:#5b5b5b" x="517.9592533387711" y="10" width="8.84799231895919" height="100" />
<rect style="stroke:none; fill:#ef2746" x="526.8076612915197" y="10" width="2.672010672320285" height="100" />
<rect style="stroke:none; fill:#5b5b5b" x="529.4808001126972" y="10" width="40.740523007991484" height="100" />
<rect style="stroke:none; fill:#ef2746" x="570.2220158436712" y="10" width="0.925101855018536" height="100" />
<rect style="stroke:none; fill:#5b5b5b" x="571.1490177388704" y="10" width="8.662382143816085" height="100" />
<rect style="stroke:none; fill:#f59031" x="579.8142697350426" y="10" width="0.8715246803424449" height="100" />
<rect style="stroke:none; fill:#5b5b5b" x="580.686249633345" y="10" width="3.399706269407778" height="100" />
<rect style="stroke:none; fill:#bad531" x="584.1151888126149" y="10" width="0.3003448931325022" height="100" />
<rect style="stroke:none; fill:#5b5b5b" x="584.4211546579483" y="10" width="4.524213382964038" height="100" />
<rect style="stroke:none; fill:#ef2746" x="588.9545119842815" y="10" width="0.45555442538588486" height="100" />
<rect style="stroke:none; fill:#5b5b5b" x="589.4132529353869" y="10" width="8.214665384175207" height="100" />
<rect style="stroke:none; fill:#bfbfbf" x="597.6297589834871" y="10" width="0.02022751108938499" height="100" />
<rect style="stroke:none; fill:#5b5b5b" x="597.6521636239501" y="10" width="1.944077570210216" height="100" />
<rect style="stroke:none; fill:#f59031" x="599.5998433536694" y="10" width="0.8635682620861506" height="100" />
<rect style="stroke:none; fill:#5b5b5b" x="600.464381427931" y="10" width="5.9282837001774045" height="100" />
<rect style="stroke:none; fill:#ef2746" x="606.4013736456029" y="10" width="1.0539285376807737" height="100" />
<rect style="stroke:none; fill:#5b5b5b" x="607.4576772335095" y="10" width="0.2915374152119774" height="100" />
<rect style="stroke:none; fill:#ef2746" x="607.7501448767265" y="10" width="4.643638825149311" height="100" />
<rect style="stroke:none; fill:#5b5b5b" x="612.3975046138962" y="10" width="0.9429345237969469" height="100" />
<rect style="stroke:none; fill:#f59031" x="613.3404787218635" y="10" width="0.5287455565097064" height="100" />
<rect style="stroke:none; fill:#5b5b5b" x="613.8696003279923" y="10" width="1.7693728340203907" height="100" />
<rect style="stroke:none; fill:#bfbfbf" x="615.6438420149756" y="10" width="0.061592969188029444" height="100" />
<rect style="stroke:none; fill:#ef2746" x="615.7055933208453" y="10" width="1.2267926099456352" height="100" />
<rect style="stroke:none; fill:#5b5b5b" x="616.9358891298739" y="10" width="0.8392239972721158" height="100" />
<rect style="stroke:none; fill:#ef2746" x="617.7762808601736" y="10" width="4.347450269911888" height="100" />
<rect style="stroke:none; fill:#5b5b5b" x="622.1271947449982" y="10" width="1.8253250589222414" height="100" />
<rect style="stroke:none; fill:#ef2746" x="623.9528166851986" y="10" width="1.0657246204687125" height="100" />
<rect style="stroke:none; fill:#5b5b5b" x="625.0205600983592" y="10" width="9.569473201289279" height="100" />
<rect style="stroke:none; fill:#bfbfbf" x="634.5907853988866" y="10" width="0.03934666540674889" height="100" />
<rect style="stroke:none; fill:#5b5b5b" x="634.631576886514" y="10" width="0.9885156960463144" height="100" />
<rect style="stroke:none; fill:#bfbfbf" x="635.6258124951875" y="10" width="0.007718913233718342" height="100" />
<rect style="stroke:none; fill:#5b5b5b" x="635.6335907846768" y="10" width="3.9358936499581976" height="100" />
<rect style="stroke:none; fill:#f59031" x="639.5695042267201" y="10" width="0.4022939240732283" height="100" />
<rect style="stroke:none; fill:#5b5b5b" x="639.98070458914" y="10" width="8.160751744050467" height="100" />
<rect style="stroke:none; fill:#ef2746" x="648.1425053137069" y="10" width="3.279627688410421" height="100" />
<rect style="stroke:none; fill:#5b5b5b" x="651.422845517185" y="10" width="0.3283506937112495" height="100" />
<rect style="stroke:none; fill:#ef2746" x="651.751730597197" y="10" width="1.6373002493829485" height="100" />
<rect style="stroke:none; fill:#5b5b5b" x="653.3892287674322" y="10" width="1.4988348212211702" height="100" />
<rect style="stroke:none; fill:#ef2746" x="654.8881427569942" y="10" width="0.40199704279500836" height="100" />
<rect style="stroke:none; fill:#5b5b5b" x="655.2917429586915" y="10" width="0.6464886714517332" height="100" />
<rect style="stroke:none; fill:#ef2746" x="655.9422296313567" y="10" width="0.4834216813681295" height="100" />
<rect style="stroke:none; fill:#5b5b5b" x="656.4317670670562" y="10" width="0.25080530384020217" height="100" />
<rect style="stroke:none; fill:#ef2746" x="656.6852245103152" y="10" width="6.2624532669417645" height="100" />
<rect style="stroke:none; fill:#bfbfbf" x="662.9481923714725" y="10" width="0.03722891228878" height="100" />
<rect style="stroke:none; fill:#5b5b5b" x="662.9854806600168" y="10" width="0.9563733496577026" height="100" />
<rect style="stroke:none; fill:#ef2746" x="663.9430613268727" y="10" width="1.4329271774563443" height="100" />
<rect style="stroke:none; fill:#5b5b5b" x="665.3769781085897" y="10" width="0.9537607944093672" height="100" />
<rect style="stroke:none; fill:#bad531" x="666.3311743288739" y="10" width="0.12445263182979728" height="100" />
<rect style="stroke:none; fill:#5b5b5b" x="666.4557655053002" y="10" width="1.2066244751118942" height="100" />
<rect style="stroke:none; fill:#ef2746" x="667.6677536355052" y="10" width="1.1717310288784444" height="100" />
<rect style="stroke:none; fill:#5b5b5b" x="668.8399002981731" y="10" width="0.5688641132398272" height="100" />
<rect style="stroke:none; fill:#f59031" x="669.414108274421" y="10" width="1.9367149145103615" height="100" />
<rect style="stroke:none; fill:#5b5b5b" x="671.3568993590922" y="10" width="0.43063619010062487" height="100" />
<rect style="stroke:none; fill:#ef2746" x="671.7955909278752" y="10" width="9.745325878421554" height="100" />
<rect style="stroke:none; fill:#5b5b5b" x="681.5415501530236" y="10" width="0.41448584856546034" height="100" />
<rect style="stroke:none; fill:#ef2746" x="681.9573422792132" y="10" width="2.7931382338340187" height="100" />
<rect style="stroke:none; fill:#5b5b5b" x="684.7517076223306" y="10" width="1.3284249675229267" height="100" />
<rect style="stroke:none; fill:#ef2746" x="686.0812607387107" y="10" width="0.7858249513629566" height="100" />
<rect style="stroke:none; fill:#5b5b5b" x="686.8697180374072" y="10" width="2.6666470172271115" height="100" />
<rect style="stroke:none; fill:#ef2746" x="689.5379088372811" y="10" width="7.765919436103165" height="100" />
<rect style="stroke:none; fill:#5b5b5b" x="697.3049168380711" y="10" width="0.18923212673738737" height="100" />
<rect style="stroke:none; fill:#f59031" x="697.4961677575003" y="10" width="9.15083101482874" height="100" />
<rect style="stroke:none; fill:#5b5b5b" x="706.6472956536073" y="10" width="0.3630066349221234" height="100" />
<rect style="stroke:none; fill:#f59031" x="707.0104804172963" y="10" width="7.528196700589856" height="100" />
<rect style="stroke:none; fill:#5b5b5b" x="714.540220900533" y="10" width="0.930148836748275" height="100" />
<rect style="stroke:none; fill:#f59031" x="715.4703895293665" y="10" width="4.608626626404573" height="100" />
<rect style="stroke:none; fill:#5b5b5b" x="720.0792338687083" y="10" width="0.273150568047556" height="100" />
<rect style="stroke:none; fill:#ef2746" x="720.3530969518237" y="10" width="0.7598379434761049" height="100" />
<rect style="stroke:none; fill:#5b5b5b" x="721.1145380542022" y="10" width="0.664499468997076" height="100" />
<rect style="stroke:none; fill:#ef2746" x="721.7796114936705" y="10" width="8.878234625167194" height="100" />
<rect style="stroke:none; fill:#606cb3" x="730.6582815447124" y="10" width="0.4349706567626359" height="100" />
<rect style="stroke:none; fill:#f59031" x="731.0933511619011" y="10" width="1.4952524537973162" height="100" />
<rect style="stroke:none; fill:#bad531" x="732.5891775861696" y="10" width="4.107886870473614" height="100" />
<rect style="stroke:none; fill:#f59031" x="736.6974405062623" y="10" width="3.179796410587664" height="100" />
<rect style="stroke:none; fill:#bad531" x="739.8773556693612" y="10" width="6.456158404937666" height="100" />
<rect style="stroke:none; fill:#5b5b5b" x="746.3405600566354" y="10" width="0.05195422368848884" height="100" />
<rect style="stroke:none; fill:#ef2746" x="746.3928903299429" y="10" width="0.18614456144390004" height="100" />
<rect style="stroke:none; fill:#bad531" x="746.580618258204" y="10" width="1.3686424846791208" height="100" />
<rect style="stroke:none; fill:#f59031" x="747.9495576241613" y="10" width="6.215922074602093" height="100" />
<rect style="stroke:none; fill:#27abd0" x="754.166271382172" y="10" width="3.9140827720516396" height="100" />
<rect style="stroke:none; fill:#bfbfbf" x="758.0803739463089" y="10" width="0.22814336626941367" height="100" />
<rect style="stroke:none; fill:#27abd0" x="758.3171070775614" y="10" width="2.9373235746228348" height="100" />
<rect style="stroke:none; fill:#5b5b5b" x="761.2888886725431" y="10" width="0.09046962151622191" height="100" />
<rect style="stroke:none; fill:#27abd0" x="761.3797739278488" y="10" width="2.5001362043161564" height="100" />
<rect style="stroke:none; fill:#f59031" x="763.8805038947213" y="10" width="6.514525264235705" height="100" />
<rect style="stroke:none; fill:#bfbfbf" x="770.3970677437342" y="10" width="0.0524490258188554" height="100" />
<rect style="stroke:none; fill:#5b5b5b" x="770.4498730270869" y="10" width="0.07768393446754998" height="100" />
<rect style="stroke:none; fill:#606cb3" x="770.5296945067577" y="10" width="0.3791965606277172" height="100" />
<rect style="stroke:none; fill:#f59031" x="770.9133047023882" y="10" width="2.7493779334244004" height="100" />
<rect style="stroke:none; fill:#bfbfbf" x="773.6635930717325" y="10" width="0.08383927296931" height="100" />
<rect style="stroke:none; fill:#ef2746" x="773.7486990381556" y="10" width="0.4973355172740372" height="100" />
<rect style="stroke:none; fill:#5b5b5b" x="774.2464699813042" y="10" width="0.14758957944573764" height="100" />
<rect style="stroke:none; fill:#bad531" x="774.3954845908855" y="10" width="0.2247589196977064" height="100" />
<rect style="stroke:none; fill:#5b5b5b" x="774.623449828388" y="10" width="0.16932128901143698" height="100" />
<rect style="stroke:none; fill:#ef2746" x="774.7939784345975" y="10" width="1.6800907376170486" height="100" />
<rect style="stroke:none; fill:#5b5b5b" x="776.4749598160492" y="10" width="0.9756904248272131" height="100" />
<rect style="stroke:none; fill:#ef2746" x="777.4534607169769" y="10" width="0.7872697735836269" height="100" />
<rect style="stroke:none; fill:#5b5b5b" x="778.2428680357638" y="10" width="0.18448202628586838" height="100" />
<rect style="stroke:none; fill:#ef2746" x="778.4438368690334" y="10" width="0.8054586998959017" height="100" />
<rect style="stroke:none; fill:#5b5b5b" x="779.2509778961726" y="10" width="3.4658712102803944" height="100" />
<rect style="stroke:none; fill:#ef2746" x="782.7186699782927" y="10" width="1.6854148085397929" height="100" />
<rect style="stroke:none; fill:#bfbfbf" x="784.4131297697755" y="10" width="0.16797542721683992" height="100" />
<rect style="stroke:none; fill:#ef2746" x="784.5847271485867" y="10" width="0.8212923680676316" height="100" />
<rect style="stroke:none; fill:#5b5b5b" x="785.4069695367447" y="10" width="0.7185120695478897" height="100" />
<rect style="stroke:none; fill:#ef2746" x="786.1278962406888" y="10" width="3.051563490481866" height="100" />
<rect style="stroke:none; fill:#5b5b5b" x="789.1822306231006" y="10" width="0.6703183420501867" height="100" />
<rect style="stroke:none; fill:#606cb3" x="789.853756282349" y="10" width="0.1462437176511406" height="100" />
<rect style="stroke:black; stroke-width:1px; fill:none" x="50.02529428490434" y="10" width="739.9747057150958" height="100" />
<line style="stroke:black; stroke-width:1px; fill:none" x1="50" y1="120" x2="790" y2="120"/>
<line style="stroke:black; stroke-width:1px; fill:none" x1="50.0" y1="120" x2="50.0" y2="122"/>
<line style="stroke:black; stroke-width:1px; fill:none" x1="148.96042607331208" y1="120" x2="148.96042607331208" y2="122"/>
<line style="stroke:black; stroke-width:1px; fill:none" x1="247.92085214662416" y1="120" x2="247.92085214662416" y2="122"/>
<line style="stroke:black; stroke-width:1px; fill:none" x1="346.88127821993623" y1="120" x2="346.88127821993623" y2="122"/>
<line style="stroke:black; stroke-width:1px; fill:none" x1="445.8417042932483" y1="120" x2="445.8417042932483" y2="122"/>
<line style="stroke:black; stroke-width:1px; fill:none" x1="544.8021303665604" y1="120" x2="544.8021303665604" y2="122"/>
<line style="stroke:black; stroke-width:1px; fill:none" x1="643.7625564398725" y1="120" x2="643.7625564398725" y2="122"/>
<line style="stroke:black; stroke-width:1px; fill:none" x1="742.7229825131845" y1="120" x2="742.7229825131845" y2="122"/>
<text text-anchor="middle" x="50.0" y="136" fill="black" font-family="Helvetica" font-size="12">0</text>
<text text-anchor="middle" x="247.92085214662416" y="136" fill="black" font-family="Helvetica" font-size="12">10000000</text>
<text text-anchor="middle" x="445.8417042932483" y="136" fill="black" font-family="Helvetica" font-size="12">20000000</text>
<text text-anchor="middle" x="643.7625564398725" y="136" fill="black" font-family="Helvetica" font-size="12">30000000</text>
<text text-anchor="middle" x="420.0" y="154" fill="black" font-family="Helvetica" font-size="12" font-weight="bold">Chromosome position (bp)</text>

</svg>
